<?xml version="1.0" standalone="no"?>
<!DOCTYPE svg PUBLIC "-//W3C//DTD SVG 20010904//EN"
 "http://www.w3.org/TR/2001/REC-SVG-20010904/DTD/svg10.dtd">
<svg version="1.0" xmlns="http://www.w3.org/2000/svg"
 width="136.000000pt" height="133.000000pt" viewBox="0 0 136.000000 133.000000"
 preserveAspectRatio="xMidYMid meet">

<g transform="translate(0.000000,133.000000) scale(0.100000,-0.100000)"
fill="#000000" stroke="none">
<path d="M640 1255 c0 -8 7 -15 15 -15 11 0 15 -12 15 -51 0 -64 24 -63 28 2
2 25 10 47 18 52 27 15 14 27 -31 27 -33 0 -45 -4 -45 -15z"/>
<path d="M865 1215 c-46 -45 -23 -115 38 -115 36 0 67 33 67 70 0 35 -31 70
-60 70 -12 0 -32 -11 -45 -25z m65 -20 c20 -24 -3 -67 -33 -63 -27 4 -34 39
-12 62 20 20 29 20 45 1z"/>
<path d="M407 1212 c-23 -25 -21 -68 3 -92 24 -24 82 -27 100 -4 19 22 16 70
-5 94 -23 25 -76 26 -98 2z m73 -27 c17 -21 8 -50 -17 -53 -24 -4 -48 30 -39
54 7 18 40 18 56 -1z"/>
<path d="M1056 1074 c-34 -25 -45 -39 -38 -46 8 -8 19 -6 36 6 29 18 31 14 15
-33 -19 -54 2 -60 60 -16 69 50 67 68 -3 40 -16 -7 -17 -5 -10 16 11 34 11 61
-1 65 -5 2 -32 -13 -59 -32z"/>
<path d="M222 1067 c-12 -13 -22 -28 -22 -33 0 -12 83 -74 99 -74 6 0 11 7 11
15 0 8 -4 15 -10 15 -5 0 -10 5 -10 10 0 6 14 10 31 10 34 0 37 23 3 28 -11 2
-24 13 -29 25 -14 31 -46 32 -73 4z m43 -37 c-5 -8 -11 -8 -17 -2 -6 6 -7 16
-3 22 5 8 11 8 17 2 6 -6 7 -16 3 -22z"/>
<path d="M658 1063 c0 -4 -1 -15 -2 -23 -1 -9 -13 -16 -28 -18 -32 -4 -39 -32
-8 -32 17 0 19 -3 11 -19 -6 -10 -14 -37 -20 -60 -11 -51 4 -65 31 -28 25 34
53 34 74 2 35 -53 53 1 21 62 -21 41 -21 43 3 43 11 0 20 7 20 15 0 10 -10 15
-29 15 -23 0 -30 5 -33 22 -3 21 -36 39 -40 21z"/>
<path d="M460 955 c-14 -17 -40 -20 -40 -5 0 13 -27 13 -35 0 -3 -5 0 -18 7
-29 11 -18 10 -23 -7 -35 -16 -12 -17 -17 -8 -27 10 -10 17 -9 33 6 25 23 32
16 55 -53 21 -65 43 -58 25 8 -6 23 -9 44 -7 46 2 2 22 -2 45 -10 33 -12 43
-12 51 -2 8 10 -3 17 -49 31 -61 18 -72 32 -45 55 8 7 12 16 9 21 -8 13 -20
11 -34 -6z"/>
<path d="M867 963 c-4 -3 3 -17 14 -29 l22 -23 -25 -10 c-13 -5 -43 -15 -66
-22 -32 -9 -39 -15 -31 -25 8 -10 18 -10 51 2 23 8 43 12 46 9 3 -3 0 -23 -7
-46 -20 -65 3 -72 24 -7 23 69 30 76 55 53 16 -15 23 -16 33 -6 9 10 8 15 -8
27 -17 13 -18 17 -6 35 18 30 -1 49 -30 31 -18 -11 -24 -11 -38 2 -20 18 -25
19 -34 9z"/>
<path d="M1163 900 c-24 -11 -43 -23 -43 -27 0 -4 9 -23 20 -41 18 -29 25 -33
57 -30 51 4 78 41 62 86 -13 38 -33 40 -96 12z m67 -35 c0 -18 -7 -26 -24 -31
-49 -12 -65 27 -18 44 40 15 42 14 42 -13z"/>
<path d="M110 888 c0 -13 86 -48 118 -48 25 0 10 20 -25 36 -60 24 -93 29 -93
12z"/>
<path d="M320 715 c0 -30 -3 -34 -22 -32 -17 1 -23 -3 -23 -18 0 -13 7 -20 20
-20 14 0 21 -8 23 -27 4 -32 32 -39 32 -8 0 20 1 20 31 4 42 -21 99 -26 99 -8
0 7 -9 18 -20 24 -12 6 -20 21 -20 35 0 14 9 30 20 37 11 7 20 18 20 24 0 15
-67 12 -97 -4 -29 -16 -30 -15 -36 8 -8 33 -27 23 -27 -15z"/>
<path d="M1010 730 c0 -24 -12 -25 -43 -6 -30 18 -87 19 -87 1 0 -8 9 -19 20
-25 11 -6 20 -21 20 -33 0 -12 -9 -28 -20 -35 -11 -7 -20 -19 -20 -26 0 -19
61 -14 94 8 32 21 36 20 36 -4 0 -31 28 -24 32 8 2 19 9 27 23 27 29 0 27 39
-2 43 -18 3 -23 10 -23 33 0 19 -5 29 -15 29 -8 0 -15 -9 -15 -20z"/>
<path d="M120 690 c0 -32 14 -40 24 -14 7 18 26 10 26 -11 0 -23 -36 -38 -61
-25 -16 9 -19 17 -14 42 6 25 4 29 -12 26 -29 -5 -31 -72 -1 -92 31 -22 74
-20 98 4 38 38 16 100 -36 100 -20 0 -24 -5 -24 -30z"/>
<path d="M1190 700 c-53 -53 15 -135 82 -99 30 16 38 28 38 60 0 54 -79 80
-120 39z m78 -19 c8 -5 12 -17 10 -27 -4 -25 -65 -33 -74 -10 -13 33 32 58 64
37z"/>
<path d="M477 573 c-2 -4 -12 -32 -21 -60 -19 -56 -26 -62 -46 -38 -13 16 -40
20 -40 7 0 -5 9 -17 20 -27 18 -16 19 -20 5 -27 -8 -5 -15 -15 -15 -22 0 -21
27 -27 41 -10 10 13 15 12 36 -8 16 -15 27 -18 34 -11 7 7 5 14 -6 23 -27 23
-16 38 39 54 30 9 58 20 61 25 11 18 -13 21 -55 6 -24 -8 -45 -13 -48 -10 -3
3 0 23 7 46 8 27 9 45 3 51 -5 5 -12 6 -15 1z"/>
<path d="M864 565 c-3 -8 0 -30 6 -50 7 -20 10 -38 8 -40 -2 -2 -23 3 -47 11
-27 9 -48 11 -53 6 -12 -12 -7 -15 60 -36 53 -18 64 -34 37 -56 -11 -9 -13
-16 -6 -23 7 -7 17 -5 31 8 16 14 22 15 35 5 12 -10 18 -10 30 0 14 12 14 15
0 30 -14 15 -13 19 5 35 14 12 17 22 10 29 -6 6 -16 3 -30 -9 -25 -23 -32 -16
-55 53 -18 55 -22 61 -31 37z"/>
<path d="M609 473 c-5 -35 -2 -52 13 -81 22 -41 22 -42 -2 -42 -11 0 -20 -7
-20 -15 0 -10 10 -15 29 -15 23 0 30 -5 33 -22 4 -31 36 -36 40 -6 2 17 11 24
31 26 31 4 36 22 7 29 -24 6 -24 7 -6 41 33 63 16 122 -20 68 -21 -33 -49 -33
-70 -1 -16 24 -33 33 -35 18z"/>
<path d="M327 229 c-18 -26 -14 -42 18 -63 23 -15 25 -14 46 15 17 24 20 36
12 48 -16 25 -59 26 -76 0z m43 -17 c0 -13 -12 -22 -22 -16 -10 6 -1 24 13 24
5 0 9 -4 9 -8z"/>
<path d="M972 238 c-18 -18 -15 -43 8 -63 17 -15 24 -16 45 -7 27 12 31 32 15
63 -12 21 -50 25 -68 7z m48 -34 c0 -9 -5 -14 -12 -12 -18 6 -21 28 -4 28 9 0
16 -7 16 -16z"/>
<path d="M900 221 c0 -10 -7 -21 -15 -25 -20 -7 -19 -50 1 -70 19 -20 29 -20
59 0 l24 16 -24 49 c-26 50 -45 63 -45 30z m21 -64 c-1 -12 -15 -9 -19 4 -3 6
1 10 8 8 6 -3 11 -8 11 -12z"/>
<path d="M495 169 c-21 -54 -22 -62 -6 -67 8 -3 41 84 41 110 0 24 -18 2 -35
-43z"/>
<path d="M424 195 c-4 -8 -4 -22 -1 -29 4 -10 1 -13 -10 -9 -11 4 -14 1 -11
-13 2 -13 12 -19 28 -19 21 0 25 4 23 27 -1 20 2 25 13 21 8 -3 14 1 14 10 0
26 -47 36 -56 12z"/>
<path d="M810 202 c0 -5 3 -12 7 -16 4 -4 8 -13 8 -19 1 -31 18 -78 27 -75 12
4 12 9 -3 68 -7 28 -19 50 -26 50 -7 0 -13 -4 -13 -8z"/>
<path d="M546 188 c-3 -7 -9 -28 -15 -47 -14 -44 -14 -51 3 -51 12 0 36 67 36
99 0 15 -20 14 -24 -1z"/>
<path d="M578 134 c-14 -31 -1 -57 31 -62 28 -4 51 14 51 42 0 50 -62 65 -82
20z m52 -19 c0 -8 -7 -15 -15 -15 -8 0 -15 7 -15 15 0 8 7 15 15 15 8 0 15 -7
15 -15z"/>
<path d="M737 153 c-9 -8 -9 -46 -1 -67 10 -26 24 -18 24 14 0 37 17 40 26 5
9 -35 30 -26 25 11 -1 16 -5 32 -8 37 -5 9 -57 9 -66 0z"/>
</g>
</svg>
